PathFileType	4	(X/Y/Z)	s10c0001.trc
DataRate	CameraRate	NumFrames	NumMarkers	Units	OrigDataRate	OrigDataStartFrame	OrigNumFrames
200	200	6	49	mm	200	750	2000
Frame#	Time	racr			lacr			c7			jug			rlel			rdr			llel			ldr			s2			lic			ric			lasi			rasi			rpsi			lpsi			rgt			lgt			rth1			rth2			rth3			rth4			rlfc			rmfc			rsh1			rsh2			rsh3			rsh4			rlmal			rmmal			rcal			rtoe			rmt5			rmt1			lth1			lth2			lth4			lth3			llfc			lmfc			llmal			lmmal			lcal			lmt1			lmt5			lsh1			lsh2			lsh3			lsh4			ltoe			
		X1	Y1	Z1	X2	Y2	Z2	X3	Y3	Z3	X4	Y4	Z4	X5	Y5	Z5	X6	Y6	Z6	X7	Y7	Z7	X8	Y8	Z8	X9	Y9	Z9	X10	Y10	Z10	X11	Y11	Z11	X12	Y12	Z12	X13	Y13	Z13	X14	Y14	Z14	X15	Y15	Z15	X16	Y16	Z16	X17	Y17	Z17	X18	Y18	Z18	X19	Y19	Z19	X20	Y20	Z20	X21	Y21	Z21	X22	Y22	Z22	X23	Y23	Z23	X24	Y24	Z24	X25	Y25	Z25	X26	Y26	Z26	X27	Y27	Z27	X28	Y28	Z28	X29	Y29	Z29	X30	Y30	Z30	X31	Y31	Z31	X32	Y32	Z32	X33	Y33	Z33	X34	Y34	Z34	X35	Y35	Z35	X36	Y36	Z36	X37	Y37	Z37	X38	Y38	Z38	X39	Y39	Z39	X40	Y40	Z40	X41	Y41	Z41	X42	Y42	Z42	X43	Y43	Z43	X44	Y44	Z44	X45	Y45	Z45	X46	Y46	Z46	X47	Y47	Z47	X48	Y48	Z48	X49	Y49	Z49	
750	3.7500	461.496460	1378.153198	684.071045	481.724792	1387.285767	305.870270	429.803192	1426.889771	485.722931	561.943848	1375.632324	502.730682	453.107788	1122.109863	816.838196	473.845947	910.247375	929.892944	481.772583	1109.456299	194.608536	536.489075	907.328552	90.252083	386.113159	931.913269	497.136627	534.213257	994.061462	351.449310	538.187866	1001.672058	648.919373	596.796814	918.555786	383.726562	580.909363	907.697693	638.823853	404.734985	972.444885	559.307983	405.223358	984.093628	445.758636	464.082520	853.889038	684.471497	470.488037	854.544067	308.684448	483.843079	729.280273	715.021423	507.298431	643.640686	700.780090	484.398743	561.635986	691.994202	543.196838	646.183960	691.945862	493.342163	459.314636	675.140625	481.344635	441.258057	562.585205	447.527191	360.009552	717.020935	468.712463	273.192963	714.799377	444.162476	190.566376	716.753235	500.363861	274.184937	691.584595	454.033325	84.987442	709.939575	483.526611	95.904396	630.089294	420.184235	50.396957	655.059631	651.987427	85.075447	711.275513	566.071716	42.127979	755.859863	609.736694	46.716446	658.373108	492.782013	746.208801	283.093597	515.308350	663.831177	294.658203	549.416138	666.237549	305.159912	493.645630	577.879089	301.229370	495.152893	472.782623	315.186768	490.821777	454.692719	425.607910	450.708313	103.879425	284.053833	469.826355	100.972565	362.319183	411.028503	58.726948	327.078003	612.098816	47.353340	347.314056	579.644714	46.094994	245.193634	445.848969	364.315063	270.024841	472.147949	281.484192	275.815491	451.720093	194.340118	273.330566	501.224030	283.109833	301.592285	653.381348	92.349434	295.243469	
751	3.7550	461.483429	1378.143188	684.046021	481.756195	1387.299438	305.847198	429.832092	1426.889160	485.685669	561.960815	1375.634888	502.727173	453.131470	1122.153564	816.867493	473.869720	910.270569	929.915833	481.831390	1109.444702	194.581146	536.543396	907.337341	90.232155	386.115387	931.911133	497.136230	534.252441	994.063660	351.448853	538.177002	1001.669250	648.911316	596.819153	918.573059	383.748688	580.929016	907.702942	638.844666	404.700043	972.459473	559.300171	405.211548	984.089661	445.730774	464.074066	853.882324	684.463013	470.501831	854.542786	308.693237	483.828552	729.279053	715.020752	507.289581	643.633362	700.769836	484.391571	561.614685	691.991150	543.177429	646.188660	691.929871	493.347382	459.318878	675.146729	481.335358	441.255646	562.578369	447.513000	359.974152	717.012207	468.717834	273.181335	714.799194	444.163910	190.568542	716.762390	500.373474	274.191284	691.608398	454.022827	84.983887	709.943848	483.519318	95.868645	630.105774	420.203094	50.368183	655.060547	651.979187	85.074089	711.268921	566.073242	42.133698	755.863953	609.744812	46.721214	658.397522	492.792938	746.193604	283.087524	515.341919	663.796814	294.675812	549.419189	666.258545	305.174683	493.737305	577.890564	301.293243	495.183716	472.796387	315.198914	490.800049	454.678436	425.597504	450.709717	103.883286	284.023407	469.824982	100.957710	362.320496	411.037201	58.731358	327.084900	612.086853	47.352516	347.304688	579.639038	46.084709	245.169708	445.870117	364.320557	270.022766	472.169495	281.488434	275.808228	451.720245	194.333664	273.349731	501.236877	283.122101	301.616882	653.373108	92.344246	295.245758	
752	3.7600	461.479553	1378.144165	684.046570	481.768433	1387.300415	305.848114	429.848511	1426.870483	485.650482	561.949707	1375.642944	502.722839	453.137360	1122.140381	816.873901	473.898560	910.281738	929.953735	481.822662	1109.455688	194.554245	536.586975	907.344482	90.207512	386.132172	931.919861	497.125977	534.250977	994.062744	351.443237	538.190552	1001.682007	648.900757	596.842041	918.549622	383.743408	580.937256	907.709106	638.843262	404.699158	972.446045	559.303711	405.231995	984.083679	445.728394	464.089783	853.891418	684.452209	470.511047	854.541382	308.683350	483.843689	729.262146	715.015259	507.289948	643.628113	700.777100	484.402008	561.629639	692.002686	543.198425	646.178406	691.928223	493.349243	459.318207	675.147766	481.305939	441.227753	562.584412	447.528717	359.996765	717.007507	468.719330	273.195892	714.807739	444.177307	190.565536	716.777405	500.393982	274.198914	691.611145	454.021942	84.979721	709.945129	483.543701	95.908577	630.118103	420.201172	50.385197	655.062683	651.985352	85.071106	711.277161	566.082886	42.135227	755.858337	609.731812	46.722195	658.380066	492.803009	746.213684	283.087219	515.359070	663.799561	294.734833	549.416809	666.262329	305.166595	493.759644	577.876709	301.290436	495.185211	472.792816	315.201019	490.829620	454.689819	425.600983	450.725433	103.879166	284.034058	469.829620	100.969498	362.320526	411.037354	58.710464	327.087036	612.087585	47.349953	347.305420	579.643677	46.102932	245.173752	445.880981	364.325317	270.030853	472.202454	281.496613	275.820770	451.754120	194.344238	273.326355	501.261139	283.117249	301.624420	653.385071	92.341011	295.247192	
753	3.7650	461.488037	1378.130371	684.026062	481.759949	1387.327637	305.857666	429.838013	1426.879761	485.677795	561.958984	1375.641235	502.696442	453.178040	1122.151123	816.889465	473.911896	910.303955	929.994324	481.854401	1109.484375	194.562820	536.614868	907.347900	90.190994	386.133240	931.920959	497.139435	534.244446	994.073547	351.428162	538.191833	1001.674561	648.913513	596.829102	918.556824	383.743896	580.948242	907.714966	638.846375	404.737396	972.448853	559.304077	405.237152	984.095947	445.720886	464.102051	853.906677	684.463135	470.516357	854.540649	308.687195	483.859528	729.299927	715.027466	507.320770	643.629272	700.776123	484.422119	561.614441	691.999023	543.196289	646.184570	691.947144	493.355469	459.340790	675.156860	481.282104	441.209320	562.584167	447.534637	359.999420	717.023193	468.715485	273.183014	714.805054	444.135468	190.568085	716.750183	500.390289	274.186127	691.590149	454.042328	84.987396	709.935364	483.533539	95.891396	630.119507	420.214111	50.354885	655.048889	651.995483	85.060555	711.289917	566.065918	42.129566	755.866272	609.735107	46.710590	658.382080	492.810333	746.201355	283.080292	515.369873	663.819458	294.675262	549.442505	666.262146	305.158630	493.745911	577.889648	301.307251	495.195923	472.802673	315.198730	490.825714	454.691162	425.597107	450.712891	103.879578	284.038239	469.845306	100.978737	362.321289	411.031525	58.718853	327.078705	612.107300	47.357403	347.314880	579.640137	46.074577	245.179977	445.893402	364.310394	270.022339	472.167206	281.484436	275.820740	451.746246	194.336472	273.330170	501.232239	283.099152	301.610992	653.364136	92.358788	295.256409	
754	3.7700	461.473175	1378.141479	684.021790	481.795258	1387.324707	305.852264	429.828644	1426.878418	485.672791	561.959778	1375.641235	502.686493	453.172516	1122.170044	816.885254	473.924377	910.337585	930.011414	481.925232	1109.468506	194.534882	536.651733	907.363708	90.162987	386.141602	931.916016	497.135925	534.263062	994.063599	351.425903	538.225342	1001.701599	648.903015	596.840210	918.547485	383.733856	580.941895	907.711853	638.850342	404.813019	972.440918	559.308289	405.256317	984.100830	445.742188	464.143921	853.908752	684.462769	470.540192	854.533081	308.686401	483.864532	729.290344	715.033752	507.355652	643.649780	700.801636	484.422089	561.626648	692.007690	543.221497	646.196472	691.975586	493.377991	459.348480	675.167358	481.266510	441.199707	562.580261	447.541412	359.999695	717.029785	468.719574	273.191833	714.809265	444.190460	190.555893	716.779480	500.388245	274.182159	691.597900	454.054321	84.991646	709.944824	483.511993	95.897903	630.105835	420.250885	50.374783	655.069092	651.990662	85.062225	711.276794	566.094727	42.145451	755.879639	609.725952	46.718693	658.363464	492.815796	746.199951	283.105255	515.369873	663.819519	294.675293	549.442261	666.258179	305.157379	493.763794	577.889587	301.292511	495.200287	472.795685	315.199646	490.851990	454.688385	425.606018	450.722870	103.891251	284.032410	469.861328	100.973419	362.326141	411.045654	58.723816	327.083374	612.103516	47.358707	347.320953	579.638733	46.096218	245.182938	445.887726	364.309937	270.024597	472.197418	281.495911	275.830139	451.744476	194.343994	273.342804	501.236786	283.102417	301.587952	653.381714	92.344978	295.255402	
755	3.7750	461.490051	1378.147705	684.016479	481.836731	1387.307129	305.820038	429.865082	1426.850098	485.654663	561.967285	1375.635254	502.673706	453.137726	1122.164795	816.880127	473.948578	910.360046	930.028259	481.970490	1109.472168	194.510574	536.714050	907.377197	90.158447	386.171173	931.931335	497.148163	534.289917	994.067505	351.430908	538.252625	1001.707947	648.916443	596.871704	918.561584	383.743347	580.961304	907.715393	638.862000	404.887726	972.419556	559.316040	405.270081	984.098938	445.745422	464.152222	853.916443	684.480408	470.548889	854.530762	308.695221	483.884735	729.303894	715.039062	507.352692	643.676025	700.818909	484.434082	561.633545	692.011902	543.223816	646.214600	692.003540	493.377625	459.340057	675.160034	481.261749	441.198334	562.575134	447.560699	360.012238	717.026428	468.715485	273.181183	714.792969	444.191528	190.553375	716.771545	500.381073	274.198761	691.610352	454.083588	84.988632	709.951599	483.529541	95.890640	630.107788	420.279358	50.317951	655.080566	651.998657	85.079231	711.291870	566.154297	42.163364	755.887390	609.735352	46.727581	658.365784	492.838409	746.211731	283.090088	515.388977	663.790283	294.731384	549.442505	666.262146	305.158630	493.757965	577.903809	301.276581	495.232056	472.805267	315.216248	490.884125	454.705078	425.625061	450.741760	103.897316	284.041656	469.872375	100.989304	362.332184	411.042053	58.719105	327.101227	612.118896	47.371674	347.326477	579.639587	46.098263	245.178238	445.889771	364.315308	270.026672	472.183929	281.493835	275.814209	451.746521	194.348862	273.320862	501.290436	283.106384	301.621338	653.393921	92.345062	295.257843	
